<?xml version="1.0" encoding="utf-8"?>
<!-- Generator: Adobe Illustrator 24.0.1, SVG Export Plug-In . SVG Version: 6.00 Build 0)  -->
<svg version="1.1" id="Layer_1" xmlns="http://www.w3.org/2000/svg" xmlns:xlink="http://www.w3.org/1999/xlink" x="0px" y="0px"
	 viewBox="0 0 40 40" style="enable-background:new 0 0 40 40;" xml:space="preserve">
<style type="text/css">
	.st0{fill:#D40058;}
	.st1{fill:#453C90;}
</style>
	<path class="st0" d="M23.4,13.6c1.1,1.9,1.7,4,1.7,6.3c0,0.5,0,0.9-0.1,1.4c1.3,1.4,3.2,2.3,5.2,2.3V8.9C27,8.9,24.4,10.9,23.4,13.6
	"/>
	<path class="st0" d="M31.4,16.2V31c4.1,0,7.4-3.3,7.4-7.4C38.7,19.5,35.3,16.2,31.4,16.2"/>
	<path class="st0" d="M29.8,30c-2.3,0-4.5-1-6.2-2.8C23.5,27,23.3,27,23.2,27c-0.2,0-0.4,0.1-0.5,0.3c-0.1,0.2,0,0.4,0.1,0.6
	c1.9,2,4.4,3.2,7,3.2c0.3,0,0.5-0.2,0.5-0.5C30.2,30.2,30,30,29.8,30"/>
	<path class="st0" d="M37.5,11.9C36,10.2,34,9.2,32,8.9h-0.1c-0.3,0-0.5,0.2-0.5,0.5c0,0.3,0.2,0.5,0.4,0.5c2,0.2,3.7,1.2,5,2.7
	c0.1,0.1,0.2,0.2,0.4,0.2c0.1,0,0.3-0.1,0.4-0.2C37.6,12.3,37.6,12.1,37.5,11.9"/>
	<path class="st1" d="M23.4,19.9C23.4,26,18.5,31,12.2,31c-6.1,0-11-5-11-11.1s4.9-11,11-11S23.4,13.8,23.4,19.9"/>
</svg>
